<svg width="95" height="21" viewBox="0 0 95 21" fill="none" xmlns="http://www.w3.org/2000/svg">
<g clip-path="url(#clip0_41_738)">
<path d="M6.38759 2.77722H10.7617V4.23526H7.84563V7.15133H6.38759V2.77722ZM13.6778 2.77722H18.0519V7.15133H16.5938V4.23526H13.6778V2.77722ZM6.38759 10.0674H7.84563V12.9835H10.7617V14.4415H6.38759V10.0674ZM16.5938 10.0674H18.0519V14.4415H13.6778V12.9835H16.5938V10.0674ZM10.7617 7.15133H13.6778V10.0674H10.7617V7.15133Z" fill="#1AF8FF"/>
</g>
<path d="M81.9404 5.8418H83.3342V10.0076H81.9404V5.8418ZM87.5156 5.8418H88.9095V10.0076H87.5156V5.8418ZM84.728 12.7848H86.1218V15.562H84.728V12.7848ZM84.728 15.562V16.9506H81.9404V15.562H84.728ZM86.1218 10.0076H87.5156V12.7848H86.1218V10.0076ZM83.3342 10.0076H84.728V12.7848H83.3342V10.0076Z" fill="#1AF8FF"/>
<path d="M72.1782 10.0076H73.572V12.7848H72.1782V10.0076ZM73.572 12.7848H76.3596V14.1734H73.572V12.7848ZM76.3596 11.3962H77.7535V10.0076H73.572V8.61901H77.7535V7.2304H79.1473V14.1734H77.7535V12.7848H76.3596V11.3962ZM73.572 5.8418H77.7535V7.2304H73.572V5.8418Z" fill="#1AF8FF"/>
<path d="M67.9913 3.06458H69.3851V14.1734H67.9913V12.7848H66.5975V11.3962H67.9913V8.619H66.5975V7.23039H67.9913V3.06458ZM66.5975 12.7848V14.1734H63.8098V12.7848H66.5975ZM63.8098 12.7848H62.416V7.23039H63.8098V12.7848ZM66.5975 7.23039H63.8098V5.84179H66.5975V7.23039Z" fill="#1AF8FF"/>
<path d="M52.6538 10.0076H54.0476V12.7848H52.6538V10.0076ZM54.0476 12.7848H56.8353V14.1734H54.0476V12.7848ZM56.8353 11.3962H58.2291V10.0076H54.0476V8.61901H58.2291V7.2304H59.6229V14.1734H58.2291V12.7848H56.8353V11.3962ZM54.0476 5.8418H58.2291V7.2304H54.0476V5.8418Z" fill="#1AF8FF"/>
<path d="M45.6793 5.8418V7.2304H47.0731V8.61901H45.6793V12.7848H48.4669V14.1734H42.8916V12.7848H44.2854V7.2304H42.8916V5.8418H45.6793ZM49.8607 5.8418V7.2304H47.0731V5.8418H49.8607Z" fill="#1AF8FF"/>
<path d="M33.1294 10.0076H34.5232V12.7848H33.1294V10.0076ZM34.5232 12.7848H37.3109V14.1734H34.5232V12.7848ZM37.3109 11.3962H38.7047V10.0076H34.5232V8.61901H38.7047V7.2304H40.0985V14.1734H38.7047V12.7848H37.3109V11.3962ZM34.5232 5.8418H38.7047V7.2304H34.5232V5.8418Z" fill="#1AF8FF"/>
<path d="M23.3672 3.06458H30.3363V4.45318H24.7611V7.23039H28.9425V8.619H24.7611V14.1734H23.3672V3.06458Z" fill="#1AF8FF"/>
<defs>
<clipPath id="clip0_41_738">
<rect width="11.6643" height="11.6643" fill="white" transform="translate(6.39725 2.75525)"/>
</clipPath>
</defs>
</svg>
